<?xml version="1.0" encoding="utf-8"?>
<svg id="master-artboard" viewBox="0 0 975.336181640625 912.6947631835938" version="1.1" xmlns="http://www.w3.org/2000/svg" x="0px" y="0px" style="enable-background:new 0 0 1400 980;" width="975.336181640625px" height="912.6947631835938px"><defs><style id="ee-google-fonts">@import url(https://fonts.googleapis.com/css?family=Aldrich:400);</style><path id="text-path-0" d="M 778.8464965820312 213.4612274169922 A 100 18 0 0 1 988.3533935546875 213.4612274169922 A 100 18 0 0 1 778.8464965820312 213.4612274169922 Z" style="fill: none; stroke: red; stroke-width: 2;"/><path id="text-path-1" d="M 664.5464477539062 37.96122741699219 A 100 19 0 0 1 876.5812377929688 37.96122741699219 A 100 19 0 0 1 664.5464477539062 37.96122741699219" style="fill: none; stroke: red; stroke-width: 2;"/><path id="text-path-2" d="M 765.3650512695312 211.70851135253906 A 100 17 0 0 1 991.5017700195312 211.70851135253906 A 100 17 0 0 1 765.3650512695312 211.70851135253906" style="fill: none; stroke: red; stroke-width: 2;"/><path id="path-1" d="M 765.3650512695312 211.70851135253906 A 100 17 0 0 1 991.5017700195312 211.70851135253906 A 100 17 0 0 1 765.3650512695312 211.70851135253906" style="fill: none; stroke: red; stroke-width: 2;"/></defs><rect id="ee-background" x="0" y="0" width="975.336181640625" height="912.6947631835938" style="fill: white; fill-opacity: 0; pointer-events: none;"/>


<path d="M 880.3870239257812 239.90606689453125" style="fill: rgb(63, 61, 61); fill-opacity: 1; stroke: rgb(0, 0, 0); stroke-opacity: 1; stroke-width: 0; paint-order: fill;" transform="matrix(1, 0, 0, 1, -174.67311096191406, -64.1001968383789)"/><path d="M 864.144775390625 229.48651123046875" style="fill: rgb(63, 61, 61); fill-opacity: 1; stroke: rgb(0, 0, 0); stroke-opacity: 1; stroke-width: 0; paint-order: fill;" transform="matrix(1, 0, 0, 1, -174.67311096191406, -64.1001968383789)"/><g transform="matrix(0.47851571440696716, 0, 0, 0.47851571440696716, 18.20873464447709, -46.94540303833395)"><title>logov2</title><path d="M 601.6400146484375 686.0900268554688 L 681.0900268554688 686.0900268554688 L 963.4299926757812 686.0900268554688 L 1390.27001953125 686.0900268554688 L 1390.27001953125 1452 L 601.6400146484375 1452 L 601.6400146484375 686.0900268554688 Z" class="cls-2" style="fill: none; stroke: rgb(0, 0, 0); stroke-miterlimit: 10; stroke-width: 10px;"/><path d="M 678.659973 502.209991 L 678.659973 686.090027" class="cls-3" style="stroke: rgb(0, 0, 0); stroke-miterlimit: 10; stroke-width: 10px; fill: rgb(255, 255, 255);"/><path d="M 710.479973 470.390015 A 31.82 31.82 0 0 1 678.659973 502.210014 A 31.82 31.82 0 0 1 646.839973 470.390015 A 31.82 31.82 0 0 1 678.659973 438.570015 A 31.82 31.82 0 0 1 710.479973 470.390015 Z" class="cls-2" style="fill: none; stroke: rgb(0, 0, 0); stroke-miterlimit: 10; stroke-width: 10px;"/><path d="M 678.659973 604.150024 L 601.640015 536.72998 L 601.640015 352.279999" class="cls-2" style="fill: none; stroke: rgb(0, 0, 0); stroke-miterlimit: 10; stroke-width: 10px;"/><path d="M 812.100029 587.969971 A 31.82 31.82 0 0 1 780.280029 619.78997 A 31.82 31.82 0 0 1 748.46003 587.969971 A 31.82 31.82 0 0 1 780.280029 556.149971 A 31.82 31.82 0 0 1 812.100029 587.969971 Z" class="cls-2" style="fill: none; stroke: rgb(0, 0, 0); stroke-miterlimit: 10; stroke-width: 10px;"/><path d="M 633.460014 320.459991 A 31.82 31.82 0 0 1 601.640015 352.279991 A 31.82 31.82 0 0 1 569.820015 320.459991 A 31.82 31.82 0 0 1 601.640015 288.639992 A 31.82 31.82 0 0 1 633.460014 320.459991 Z" class="cls-2" style="fill: none; stroke: rgb(0, 0, 0); stroke-miterlimit: 10; stroke-width: 10px;"/><path d="M 812.099976 587.969971 L 963.429993 586.75 L 963.429993 686.090027" class="cls-2" style="fill: none; stroke: rgb(0, 0, 0); stroke-miterlimit: 10; stroke-width: 10px;"/><path d="M 963.429993 586.75 L 963.429993 488.869995 L 912.869995 409.98999 L 912.869995 253.449997" class="cls-2" style="fill: none; stroke: rgb(0, 0, 0); stroke-miterlimit: 10; stroke-width: 10px;"/><path d="M 944.689995 221.630005 A 31.82 31.82 0 0 1 912.869995 253.450005 A 31.82 31.82 0 0 1 881.049995 221.630005 A 31.82 31.82 0 0 1 912.869995 189.810005 A 31.82 31.82 0 0 1 944.689995 221.630005 Z" class="cls-2" style="fill: none; stroke: rgb(0, 0, 0); stroke-miterlimit: 10; stroke-width: 10px;"/><path d="M 1079.639946 285.269989 A 31.82 31.82 0 0 1 1047.819946 317.089989 A 31.82 31.82 0 0 1 1015.999947 285.269989 A 31.82 31.82 0 0 1 1047.819946 253.449989 A 31.82 31.82 0 0 1 1079.639946 285.269989 Z" class="cls-2" style="fill: none; stroke: rgb(0, 0, 0); stroke-miterlimit: 10; stroke-width: 10px;"/><path d="M 1172.769951 285.269989 A 31.82 31.82 0 0 1 1140.949951 317.089989 A 31.82 31.82 0 0 1 1109.129951 285.269989 A 31.82 31.82 0 0 1 1140.949951 253.449989 A 31.82 31.82 0 0 1 1172.769951 285.269989 Z" class="cls-2" style="fill: none; stroke: rgb(0, 0, 0); stroke-miterlimit: 10; stroke-width: 10px;"/><path d="M 1352.769951 438.570007 A 31.82 31.82 0 0 1 1320.949951 470.390007 A 31.82 31.82 0 0 1 1289.129951 438.570007 A 31.82 31.82 0 0 1 1320.949951 406.750008 A 31.82 31.82 0 0 1 1352.769951 438.570007 Z" class="cls-2" style="fill: none; stroke: rgb(0, 0, 0); stroke-miterlimit: 10; stroke-width: 10px;"/><path d="M 1758.439995 772.609985 A 31.82 31.82 0 0 1 1726.619995 804.429985 A 31.82 31.82 0 0 1 1694.799995 772.609985 A 31.82 31.82 0 0 1 1726.619995 740.789986 A 31.82 31.82 0 0 1 1758.439995 772.609985 Z" class="cls-2" style="fill: none; stroke: rgb(0, 0, 0); stroke-miterlimit: 10; stroke-width: 10px;"/><path d="M 1878.490044 927.039978 A 31.82 31.82 0 0 1 1846.670044 958.859978 A 31.82 31.82 0 0 1 1814.850044 927.039978 A 31.82 31.82 0 0 1 1846.670044 895.219978 A 31.82 31.82 0 0 1 1878.490044 927.039978 Z" class="cls-2" style="fill: none; stroke: rgb(0, 0, 0); stroke-miterlimit: 10; stroke-width: 10px;"/><path d="M 1807.330009 1024 A 31.82 31.82 0 0 1 1775.51001 1055.82 A 31.82 31.82 0 0 1 1743.69001 1024 A 31.82 31.82 0 0 1 1775.51001 992.18 A 31.82 31.82 0 0 1 1807.330009 1024 Z" class="cls-2" style="fill: none; stroke: rgb(0, 0, 0); stroke-miterlimit: 10; stroke-width: 10px;"/><path d="M 1822.080009 1149.98999 A 31.82 31.82 0 0 1 1790.26001 1181.80999 A 31.82 31.82 0 0 1 1758.44001 1149.98999 A 31.82 31.82 0 0 1 1790.26001 1118.169991 A 31.82 31.82 0 0 1 1822.080009 1149.98999 Z" class="cls-2" style="fill: none; stroke: rgb(0, 0, 0); stroke-miterlimit: 10; stroke-width: 10px;"/><path d="M 1667.500053 1357.119995 A 31.82 31.82 0 0 1 1635.680054 1388.939995 A 31.82 31.82 0 0 1 1603.860054 1357.119995 A 31.82 31.82 0 0 1 1635.680054 1325.299995 A 31.82 31.82 0 0 1 1667.500053 1357.119995 Z" class="cls-2" style="fill: none; stroke: rgb(0, 0, 0); stroke-miterlimit: 10; stroke-width: 10px;"/><path d="M 1516.620049 1100.869995 A 31.82 31.82 0 0 1 1484.800049 1132.689995 A 31.82 31.82 0 0 1 1452.980049 1100.869995 A 31.82 31.82 0 0 1 1484.800049 1069.049995 A 31.82 31.82 0 0 1 1516.620049 1100.869995 Z" class="cls-2" style="fill: none; stroke: rgb(0, 0, 0); stroke-miterlimit: 10; stroke-width: 10px;"/><path d="M 411.529991 740.789978 A 31.82 31.82 0 0 1 379.709991 772.609978 A 31.82 31.82 0 0 1 347.889992 740.789978 A 31.82 31.82 0 0 1 379.709991 708.969978 A 31.82 31.82 0 0 1 411.529991 740.789978 Z" class="cls-2" style="fill: none; stroke: rgb(0, 0, 0); stroke-miterlimit: 10; stroke-width: 10px;"/><path d="M 524.200005 800.330017 A 31.82 31.82 0 0 1 492.380005 832.150017 A 31.82 31.82 0 0 1 460.560005 800.330017 A 31.82 31.82 0 0 1 492.380005 768.510017 A 31.82 31.82 0 0 1 524.200005 800.330017 Z" class="cls-2" style="fill: none; stroke: rgb(0, 0, 0); stroke-miterlimit: 10; stroke-width: 10px;"/><path d="M 517.089989 1107.869995 A 31.82 31.82 0 0 1 485.269989 1139.689995 A 31.82 31.82 0 0 1 453.449989 1107.869995 A 31.82 31.82 0 0 1 485.269989 1076.049995 A 31.82 31.82 0 0 1 517.089989 1107.869995 Z" class="cls-2" style="fill: none; stroke: rgb(0, 0, 0); stroke-miterlimit: 10; stroke-width: 10px;"/><path d="M 236.890007 1013.409973 A 31.82 31.82 0 0 1 205.070007 1045.229973 A 31.82 31.82 0 0 1 173.250008 1013.409973 A 31.82 31.82 0 0 1 205.070007 981.589973 A 31.82 31.82 0 0 1 236.890007 1013.409973 Z" class="cls-2" style="fill: none; stroke: rgb(0, 0, 0); stroke-miterlimit: 10; stroke-width: 10px;"/><path d="M 112 1079 A 32 32 0 0 1 80 1111 A 32 32 0 0 1 48 1079 A 32 32 0 0 1 80 1047 A 32 32 0 0 1 112 1079 Z" class="cls-2" style="fill: none; stroke: rgb(0, 0, 0); stroke-miterlimit: 10; stroke-width: 10px;"/><path d="M 311.529991 1205.839966 A 31.82 31.82 0 0 1 279.709991 1237.659966 A 31.82 31.82 0 0 1 247.889992 1205.839966 A 31.82 31.82 0 0 1 279.709991 1174.019966 A 31.82 31.82 0 0 1 311.529991 1205.839966 Z" class="cls-2" style="fill: none; stroke: rgb(0, 0, 0); stroke-miterlimit: 10; stroke-width: 10px;"/><path d="M 226.519997 1302.76001 A 31.82 31.82 0 0 1 194.699997 1334.580009 A 31.82 31.82 0 0 1 162.879997 1302.76001 A 31.82 31.82 0 0 1 194.699997 1270.94001 A 31.82 31.82 0 0 1 226.519997 1302.76001 Z" class="cls-2" style="fill: none; stroke: rgb(0, 0, 0); stroke-miterlimit: 10; stroke-width: 10px;"/><path d="M 497.260002 1420.76001 A 31.82 31.82 0 0 1 465.440002 1452.580009 A 31.82 31.82 0 0 1 433.620003 1420.76001 A 31.82 31.82 0 0 1 465.440002 1388.94001 A 31.82 31.82 0 0 1 497.260002 1420.76001 Z" class="cls-2" style="fill: none; stroke: rgb(0, 0, 0); stroke-miterlimit: 10; stroke-width: 10px;"/><path d="M 936.739983 1743.459961 A 31.82 31.82 0 0 1 904.919983 1775.279961 A 31.82 31.82 0 0 1 873.099983 1743.459961 A 31.82 31.82 0 0 1 904.919983 1711.639961 A 31.82 31.82 0 0 1 936.739983 1743.459961 Z" class="cls-2" style="fill: none; stroke: rgb(0, 0, 0); stroke-miterlimit: 10; stroke-width: 10px;"/><path d="M 788.030022 1818.689941 A 31.82 31.82 0 0 1 756.210022 1850.509941 A 31.82 31.82 0 0 1 724.390022 1818.689941 A 31.82 31.82 0 0 1 756.210022 1786.869942 A 31.82 31.82 0 0 1 788.030022 1818.689941 Z" class="cls-2" style="fill: none; stroke: rgb(0, 0, 0); stroke-miterlimit: 10; stroke-width: 10px;"/><path d="M 1055.82 1555.790039 A 31.82 31.82 0 0 1 1024 1587.610039 A 31.82 31.82 0 0 1 992.18 1555.790039 A 31.82 31.82 0 0 1 1024 1523.970039 A 31.82 31.82 0 0 1 1055.82 1555.790039 Z" class="cls-2" style="fill: none; stroke: rgb(0, 0, 0); stroke-miterlimit: 10; stroke-width: 10px;"/><path d="M 859.100029 1903.969971 A 31.82 31.82 0 0 1 827.280029 1935.78997 A 31.82 31.82 0 0 1 795.46003 1903.969971 A 31.82 31.82 0 0 1 827.280029 1872.149971 A 31.82 31.82 0 0 1 859.100029 1903.969971 Z" class="cls-2" style="fill: none; stroke: rgb(0, 0, 0); stroke-miterlimit: 10; stroke-width: 10px;"/><path d="M 1148.980034 1818.689941 A 31.82 31.82 0 0 1 1117.160034 1850.509941 A 31.82 31.82 0 0 1 1085.340034 1818.689941 A 31.82 31.82 0 0 1 1117.160034 1786.869942 A 31.82 31.82 0 0 1 1148.980034 1818.689941 Z" class="cls-2" style="fill: none; stroke: rgb(0, 0, 0); stroke-miterlimit: 10; stroke-width: 10px;"/><path d="M 1233.939995 1894.25 A 31.82 31.82 0 0 1 1202.119995 1926.07 A 31.82 31.82 0 0 1 1170.299995 1894.25 A 31.82 31.82 0 0 1 1202.119995 1862.43 A 31.82 31.82 0 0 1 1233.939995 1894.25 Z" class="cls-2" style="fill: none; stroke: rgb(0, 0, 0); stroke-miterlimit: 10; stroke-width: 10px;"/><path d="M 1313.870049 1716.640015 A 31.82 31.82 0 0 1 1282.050049 1748.460014 A 31.82 31.82 0 0 1 1250.230049 1716.640015 A 31.82 31.82 0 0 1 1282.050049 1684.820015 A 31.82 31.82 0 0 1 1313.870049 1716.640015 Z" class="cls-2" style="fill: none; stroke: rgb(0, 0, 0); stroke-miterlimit: 10; stroke-width: 10px;"/><path d="M 1431.769951 1555.790039 A 31.82 31.82 0 0 1 1399.949951 1587.610039 A 31.82 31.82 0 0 1 1368.129951 1555.790039 A 31.82 31.82 0 0 1 1399.949951 1523.970039 A 31.82 31.82 0 0 1 1431.769951 1555.790039 Z" class="cls-2" style="fill: none; stroke: rgb(0, 0, 0); stroke-miterlimit: 10; stroke-width: 10px;"/><path d="M 1047.819946 317.089996 L 1047.819946 458.529999 L 1109.130005 520.01001 L 1109.130005 686.090027" class="cls-2" style="fill: none; stroke: rgb(0, 0, 0); stroke-miterlimit: 10; stroke-width: 10px;"/><path d="M 1140.949951 317.089996 L 1140.949951 456.910004 L 1201.27002 516.77002 L 1201.27002 686.090027" class="cls-2" style="fill: none; stroke: rgb(0, 0, 0); stroke-miterlimit: 10; stroke-width: 10px;"/><path d="M 1109.130005 604.150024 L 1201.27002 604.150024" class="cls-2" style="fill: none; stroke: rgb(0, 0, 0); stroke-miterlimit: 10; stroke-width: 10px;"/><path d="M 1320.949951 470.390015 L 1320.949951 686.090027" class="cls-2" style="fill: none; stroke: rgb(0, 0, 0); stroke-miterlimit: 10; stroke-width: 10px;"/><path d="M 1694.800049 772.609985 L 1390.27002 772.609985" class="cls-2" style="fill: none; stroke: rgb(0, 0, 0); stroke-miterlimit: 10; stroke-width: 10px;"/><path d="M 1814.849976 927.039978 L 1635.680054 927.039978 L 1542.540039 882.440002 L 1390.27002 882.440002" class="cls-2" style="fill: none; stroke: rgb(0, 0, 0); stroke-miterlimit: 10; stroke-width: 10px;"/><path d="M 1743.689941 1024 L 1635.680054 1024 L 1565.800049 992.179993 L 1542.540039 981.590027 L 1390.27002 981.590027" class="cls-2" style="fill: none; stroke: rgb(0, 0, 0); stroke-miterlimit: 10; stroke-width: 10px;"/><path d="M 1602.560059 911.179993 L 1565.800049 992.179993" class="cls-2" style="fill: none; stroke: rgb(0, 0, 0); stroke-miterlimit: 10; stroke-width: 10px;"/><path d="M 1758.439941 1149.98999 L 1657.540039 1149.98999 L 1584.180054 1225.449951 L 1390.27002 1225.449951" class="cls-2" style="fill: none; stroke: rgb(0, 0, 0); stroke-miterlimit: 10; stroke-width: 10px;"/><path d="M 1484.800049 1132.689941 L 1484.800049 1225.449951" class="cls-2" style="fill: none; stroke: rgb(0, 0, 0); stroke-miterlimit: 10; stroke-width: 10px;"/><path d="M 1603.859985 1357.119995 L 1390.27002 1357.119995" class="cls-2" style="fill: none; stroke: rgb(0, 0, 0); stroke-miterlimit: 10; stroke-width: 10px;"/><path class="cls-2" d="M1376.13,1555.79" transform="translate(-8 0)" style="fill: none; stroke: rgb(0, 0, 0); stroke-miterlimit: 10; stroke-width: 10px;"/><path d="M 1282.050049 1684.819946 L 1282.050049 1452.579956" class="cls-2" style="fill: none; stroke: rgb(0, 0, 0); stroke-miterlimit: 10; stroke-width: 10px;"/><path d="M 1368.130005 1555.790039 L 1282.050049 1555.790039" class="cls-2" style="fill: none; stroke: rgb(0, 0, 0); stroke-miterlimit: 10; stroke-width: 10px;"/><path d="M 1202.119995 1862.430054 L 1202.119995 1452.579956" class="cls-2" style="fill: none; stroke: rgb(0, 0, 0); stroke-miterlimit: 10; stroke-width: 10px;"/><path d="M 1117.160034 1786.869995 L 1117.160034 1605.670044 L 1117.160034 1452" class="cls-2" style="fill: none; stroke: rgb(0, 0, 0); stroke-miterlimit: 10; stroke-width: 10px;"/><path d="M 1202.119995 1607.290039 L 1117.160034 1605.670044" class="cls-2" style="fill: none; stroke: rgb(0, 0, 0); stroke-miterlimit: 10; stroke-width: 10px;"/><path d="M 904.919983 1711.640015 L 904.919983 1452.579956" class="cls-2" style="fill: none; stroke: rgb(0, 0, 0); stroke-miterlimit: 10; stroke-width: 10px;"/><path d="M 992.179993 1555.790039 L 904.919983 1555.790039" class="cls-2" style="fill: none; stroke: rgb(0, 0, 0); stroke-miterlimit: 10; stroke-width: 10px;"/><path d="M 827.280029 1872.150024 L 827.280029 1657.51001 L 767.650024 1619.439941 L 767.650024 1452.579956" class="cls-2" style="fill: none; stroke: rgb(0, 0, 0); stroke-miterlimit: 10; stroke-width: 10px;"/><path d="M 756.210022 1786.869995 L 756.210022 1694.660034 L 688.369995 1647.73999 L 688.369995 1508.599976 L 688.369995 1452.579956" class="cls-2" style="fill: none; stroke: rgb(0, 0, 0); stroke-miterlimit: 10; stroke-width: 10px;"/><path d="M 767.650024 1513.449951 L 688.369995 1513.449951" class="cls-2" style="fill: none; stroke: rgb(0, 0, 0); stroke-miterlimit: 10; stroke-width: 10px;"/><path d="M 226.520004 1302.76001 L 601.640015 1302.76001" class="cls-2" style="fill: none; stroke: rgb(0, 0, 0); stroke-miterlimit: 10; stroke-width: 10px;"/><path d="M 311.529999 1205.839966 L 601.640015 1205.839966" class="cls-2" style="fill: none; stroke: rgb(0, 0, 0); stroke-miterlimit: 10; stroke-width: 10px;"/><path d="M 485.269989 1139.689941 L 485.269989 1205.839966" class="cls-2" style="fill: none; stroke: rgb(0, 0, 0); stroke-miterlimit: 10; stroke-width: 10px;"/><path d="M 421.399994 1205.839966 L 421.399994 1237.660034 L 465.440002 1302.76001 L 465.440002 1388.939941" class="cls-2" style="fill: none; stroke: rgb(0, 0, 0); stroke-miterlimit: 10; stroke-width: 10px;"/><path d="M 411.529999 740.789978 L 601.640015 740.789978" class="cls-2" style="fill: none; stroke: rgb(0, 0, 0); stroke-miterlimit: 10; stroke-width: 10px;"/><path d="M 236.889999 1013.409973 L 303.290009 1013.409973 L 400.369995 927.039978 L 601.640015 927.039978" class="cls-2" style="fill: none; stroke: rgb(0, 0, 0); stroke-miterlimit: 10; stroke-width: 10px;"/><path d="M 112 1079 L 301.670013 1079 L 398.75 1002.789978 L 601.640015 1002.789978" class="cls-2" style="fill: none; stroke: rgb(0, 0, 0); stroke-miterlimit: 10; stroke-width: 10px;"/><path d="M 492.380005 832.150024 L 492.380005 927.039978" class="cls-2" style="fill: none; stroke: rgb(0, 0, 0); stroke-miterlimit: 10; stroke-width: 10px;"/><path d="M 552.460022 927.039978 L 552.460022 1002.789978" class="cls-2" style="fill: none; stroke: rgb(0, 0, 0); stroke-miterlimit: 10; stroke-width: 10px;"/><path d="M 82.29000091552734 -88.57703399658203 L 82.29000091552734 -17.71703338623047 L 66.19999694824219 -17.71703338623047 L 66.19999694824219 -88.57703399658203 L 29.389999389648438 -88.57703399658203 L 29.389999389648438 -17.71703338623047 L 13.390000343322754 -17.71703338623047 L 13.390000343322754 -104.65703582763672 L 29.389999389648438 -104.65703582763672 L 29.389999389648438 -89.3070297241211 C 29.496665954589844 -91.43370056152344 29.986665725708008 -93.43370056152344 30.860000610351562 -95.3070297241211 C 31.726667404174805 -97.1870346069336 32.88333511352539 -98.82036590576172 34.33000183105469 -100.20703125 C 35.77000045776367 -101.59369659423828 37.44333267211914 -102.68370056152344 39.349998474121094 -103.47703552246094 C 41.25 -104.26370239257812 43.290000915527344 -104.65703582763672 45.470001220703125 -104.65703582763672 L 66.19999694824219 -104.65703582763672 C 68.32666778564453 -104.65703582763672 70.34333038330078 -104.26370239257812 72.25 -103.47703552246094 C 74.1500015258789 -102.68370056152344 75.836669921875 -101.59369659423828 77.30999755859375 -100.20703125 C 78.77666473388672 -98.82036590576172 79.95999908447266 -97.1870346069336 80.86000061035156 -95.3070297241211 C 81.75333404541016 -93.43370056152344 82.2300033569336 -91.43370056152344 82.29000091552734 -89.3070297241211 C 82.39666748046875 -91.43370056152344 82.87000274658203 -93.43370056152344 83.70999908447266 -95.3070297241211 C 84.5566635131836 -97.1870346069336 85.69999694824219 -98.82036590576172 87.13999938964844 -100.20703125 C 88.586669921875 -101.59369659423828 90.26000213623047 -102.68370056152344 92.16000366210938 -103.47703552246094 C 94.06666564941406 -104.26370239257812 96.11000061035156 -104.65703582763672 98.29000091552734 -104.65703582763672 L 119.0199966430664 -104.65703582763672 C 121.25333404541016 -104.65703582763672 123.3499984741211 -104.23370361328125 125.30999755859375 -103.38703155517578 C 127.2699966430664 -102.54703521728516 128.97000122070312 -101.40703582763672 130.41000366210938 -99.96703338623047 C 131.85000610351562 -98.52037048339844 132.9933319091797 -96.81703186035156 133.83999633789062 -94.8570327758789 C 134.67999267578125 -92.89703369140625 135.10000610351562 -90.80370330810547 135.10000610351562 -88.57703399658203 L 135.10000610351562 -17.71703338623047 L 119.0199966430664 -17.71703338623047 L 119.0199966430664 -88.57703399658203 L 82.29000091552734 -88.57703399658203 ZM 235.41619873046875 -52.98703384399414 L 177.86619567871094 -52.98703384399414 L 177.86619567871094 -33.797035217285156 L 235.41619873046875 -33.797035217285156 L 235.41619873046875 -17.71703338623047 L 177.86619567871094 -17.71703338623047 C 175.68618774414062 -17.71703338623047 173.61619567871094 -18.14036750793457 171.65618896484375 -18.98703384399414 C 169.69619750976562 -19.82703399658203 167.99620056152344 -20.96703338623047 166.5561981201172 -22.407033920288086 C 165.11619567871094 -23.853700637817383 163.97286987304688 -25.55703353881836 163.12619018554688 -27.517032623291016 C 162.28619384765625 -29.470367431640625 161.86619567871094 -31.56369972229004 161.86619567871094 -33.797035217285156 L 161.86619567871094 -88.57703399658203 C 161.86619567871094 -90.80370330810547 162.28619384765625 -92.89703369140625 163.12619018554688 -94.8570327758789 C 163.97286987304688 -96.81703186035156 165.11619567871094 -98.52037048339844 166.5561981201172 -99.96703338623047 C 167.99620056152344 -101.40703582763672 169.69619750976562 -102.54703521728516 171.65618896484375 -103.38703155517578 C 173.61619567871094 -104.23370361328125 175.68618774414062 -104.65703582763672 177.86619567871094 -104.65703582763672 L 219.33619689941406 -104.65703582763672 C 221.5628662109375 -104.65703582763672 223.65618896484375 -104.23370361328125 225.61619567871094 -103.38703155517578 C 227.57620239257812 -102.54703521728516 229.279541015625 -101.40703582763672 230.7261962890625 -99.96703338623047 C 232.16619873046875 -98.52037048339844 233.3061981201172 -96.81703186035156 234.1461944580078 -94.8570327758789 C 234.99285888671875 -92.89703369140625 235.41619873046875 -90.80370330810547 235.41619873046875 -88.57703399658203 L 235.41619873046875 -52.98703384399414 M 177.86619567871094 -88.57703399658203 L 177.86619567871094 -69.06703186035156 L 219.33619689941406 -69.06703186035156 L 219.33619689941406 -88.57703399658203 L 177.86619567871094 -88.57703399658203 ZM 335.7335205078125 -52.98703384399414 L 278.18353271484375 -52.98703384399414 L 278.18353271484375 -33.797035217285156 L 335.7335205078125 -33.797035217285156 L 335.7335205078125 -17.71703338623047 L 278.18353271484375 -17.71703338623047 C 276.0035400390625 -17.71703338623047 273.93353271484375 -18.14036750793457 271.9735412597656 -18.98703384399414 C 270.0135192871094 -19.82703399658203 268.31353759765625 -20.96703338623047 266.87353515625 -22.407033920288086 C 265.43353271484375 -23.853700637817383 264.2901916503906 -25.55703353881836 263.44354248046875 -27.517032623291016 C 262.6035461425781 -29.470367431640625 262.18353271484375 -31.56369972229004 262.18353271484375 -33.797035217285156 L 262.18353271484375 -88.57703399658203 C 262.18353271484375 -90.80370330810547 262.6035461425781 -92.89703369140625 263.44354248046875 -94.8570327758789 C 264.2901916503906 -96.81703186035156 265.43353271484375 -98.52037048339844 266.87353515625 -99.96703338623047 C 268.31353759765625 -101.40703582763672 270.0135192871094 -102.54703521728516 271.9735412597656 -103.38703155517578 C 273.93353271484375 -104.23370361328125 276.0035400390625 -104.65703582763672 278.18353271484375 -104.65703582763672 L 319.6535339355469 -104.65703582763672 C 321.88018798828125 -104.65703582763672 323.9735412597656 -104.23370361328125 325.93353271484375 -103.38703155517578 C 327.8935241699219 -102.54703521728516 329.59686279296875 -101.40703582763672 331.04351806640625 -99.96703338623047 C 332.4835205078125 -98.52037048339844 333.62353515625 -96.81703186035156 334.4635314941406 -94.8570327758789 C 335.3102111816406 -92.89703369140625 335.7335205078125 -90.80370330810547 335.7335205078125 -88.57703399658203 L 335.7335205078125 -52.98703384399414 M 278.18353271484375 -88.57703399658203 L 278.18353271484375 -69.06703186035156 L 319.6535339355469 -69.06703186035156 L 319.6535339355469 -88.57703399658203 L 278.18353271484375 -88.57703399658203 Z" transform="matrix(1, 0, 0, 1, 630.4913330078125, 1018.2476196289062)" style="white-space: pre; stroke: rgb(0, 0, 0); stroke-width: 0;"/><path d="M 694.9369506835938 1328.571044921875 L 694.9369506835938 1311.77099609375 L 704.136962890625 1311.77099609375 C 706.850341796875 1311.77099609375 708.2069702148438 1313.1343994140625 708.2069702148438 1315.861083984375 L 708.2069702148438 1318.2510986328125 C 708.2069702148438 1320.9776611328125 706.850341796875 1322.341064453125 704.136962890625 1322.341064453125 L 697.3369750976562 1322.341064453125 L 697.3369750976562 1328.571044921875 L 694.9369506835938 1328.571044921875 M 697.3369750976562 1319.9310302734375 L 704.0069580078125 1319.9310302734375 C 704.64697265625 1319.9310302734375 705.1069946289062 1319.791015625 705.386962890625 1319.510986328125 C 705.6669921875 1319.2310791015625 705.8070068359375 1318.77099609375 705.8070068359375 1318.131103515625 L 705.8070068359375 1315.9710693359375 C 705.8070068359375 1315.3310546875 705.6669921875 1314.87109375 705.386962890625 1314.591064453125 C 705.1069946289062 1314.31103515625 704.64697265625 1314.1710205078125 704.0069580078125 1314.1710205078125 L 697.3369750976562 1314.1710205078125 L 697.3369750976562 1319.9310302734375 ZM 711.5637817382812 1314.1710205078125 C 711.5637817382812 1313.8443603515625 711.623779296875 1313.534423828125 711.7438354492188 1313.2410888671875 C 711.8704833984375 1312.94775390625 712.0438232421875 1312.6910400390625 712.2637939453125 1312.4710693359375 C 712.4838256835938 1312.2576904296875 712.740478515625 1312.0877685546875 713.0338134765625 1311.9610595703125 C 713.3271484375 1311.8343505859375 713.6371459960938 1311.77099609375 713.9638061523438 1311.77099609375 L 723.0838012695312 1311.77099609375 C 723.4104614257812 1311.77099609375 723.720458984375 1311.8343505859375 724.0137939453125 1311.9610595703125 C 724.30712890625 1312.0877685546875 724.5637817382812 1312.2576904296875 724.7838134765625 1312.4710693359375 C 724.9971313476562 1312.6910400390625 725.1671142578125 1312.94775390625 725.2938232421875 1313.2410888671875 C 725.4204711914062 1313.534423828125 725.4838256835938 1313.8443603515625 725.4838256835938 1314.1710205078125 L 725.4838256835938 1316.341064453125 L 723.0838012695312 1316.341064453125 L 723.0838012695312 1314.1710205078125 L 713.9638061523438 1314.1710205078125 L 713.9638061523438 1326.1710205078125 L 723.0838012695312 1326.1710205078125 L 723.0838012695312 1324.010986328125 L 725.4838256835938 1324.010986328125 L 725.4838256835938 1326.1710205078125 C 725.4838256835938 1326.4976806640625 725.4204711914062 1326.8077392578125 725.2938232421875 1327.10107421875 C 725.1671142578125 1327.3944091796875 724.9971313476562 1327.6510009765625 724.7838134765625 1327.87109375 C 724.5637817382812 1328.0843505859375 724.30712890625 1328.25439453125 724.0137939453125 1328.381103515625 C 723.720458984375 1328.5076904296875 723.4104614257812 1328.571044921875 723.0838012695312 1328.571044921875 L 713.9638061523438 1328.571044921875 C 713.6371459960938 1328.571044921875 713.3271484375 1328.5076904296875 713.0338134765625 1328.381103515625 C 712.740478515625 1328.25439453125 712.4838256835938 1328.0843505859375 712.2637939453125 1327.87109375 C 712.0438232421875 1327.6510009765625 711.8704833984375 1327.3944091796875 711.7438354492188 1327.10107421875 C 711.623779296875 1326.8077392578125 711.5637817382812 1326.4976806640625 711.5637817382812 1326.1710205078125 L 711.5637817382812 1314.1710205078125 ZM 738.5816650390625 1318.4010009765625 L 738.5816650390625 1326.260986328125 L 744.5316772460938 1326.260986328125 L 744.5316772460938 1324.1510009765625 L 746.8416748046875 1324.1510009765625 L 746.8416748046875 1326.260986328125 C 746.8416748046875 1326.5810546875 746.7816772460938 1326.881103515625 746.6616821289062 1327.1610107421875 C 746.5416870117188 1327.44775390625 746.3783569335938 1327.6943359375 746.1716918945312 1327.9010009765625 C 745.9650268554688 1328.107666015625 745.7183837890625 1328.27099609375 745.4317016601562 1328.3909912109375 C 745.1516723632812 1328.510986328125 744.8516845703125 1328.571044921875 744.5316772460938 1328.571044921875 L 738.5816650390625 1328.571044921875 C 738.2683715820312 1328.571044921875 737.9716796875 1328.510986328125 737.6917114257812 1328.3909912109375 C 737.4116821289062 1328.27099609375 737.1683349609375 1328.107666015625 736.961669921875 1327.9010009765625 C 736.7550048828125 1327.6943359375 736.58837890625 1327.44775390625 736.461669921875 1327.1610107421875 C 736.3416748046875 1326.881103515625 736.2816772460938 1326.5810546875 736.2816772460938 1326.260986328125 L 736.2816772460938 1318.4010009765625 C 736.2816772460938 1318.0810546875 736.3416748046875 1317.781005859375 736.461669921875 1317.5010986328125 C 736.58837890625 1317.21435546875 736.7550048828125 1316.9676513671875 736.961669921875 1316.760986328125 C 737.1683349609375 1316.5543212890625 737.4116821289062 1316.3909912109375 737.6917114257812 1316.27099609375 C 737.9716796875 1316.1510009765625 738.2683715820312 1316.091064453125 738.5816650390625 1316.091064453125 L 744.5316772460938 1316.091064453125 C 744.8516845703125 1316.091064453125 745.1516723632812 1316.1510009765625 745.4317016601562 1316.27099609375 C 745.7183837890625 1316.3909912109375 745.9650268554688 1316.5543212890625 746.1716918945312 1316.760986328125 C 746.3783569335938 1316.9676513671875 746.5416870117188 1317.21435546875 746.6616821289062 1317.5010986328125 C 746.7816772460938 1317.781005859375 746.8416748046875 1318.0810546875 746.8416748046875 1318.4010009765625 L 746.8416748046875 1320.510986328125 L 744.5316772460938 1320.510986328125 L 744.5316772460938 1318.4010009765625 L 738.5816650390625 1318.4010009765625 ZM 761.4722900390625 1326.260986328125 C 761.4722900390625 1326.5810546875 761.4122924804688 1326.881103515625 761.2922973632812 1327.1610107421875 C 761.1722412109375 1327.44775390625 761.0089111328125 1327.6943359375 760.80224609375 1327.9010009765625 C 760.5955810546875 1328.107666015625 760.352294921875 1328.27099609375 760.072265625 1328.3909912109375 C 759.7989501953125 1328.510986328125 759.5022583007812 1328.571044921875 759.1822509765625 1328.571044921875 L 752.9822387695312 1328.571044921875 C 752.6689453125 1328.571044921875 752.3722534179688 1328.510986328125 752.09228515625 1328.3909912109375 C 751.812255859375 1328.27099609375 751.5689086914062 1328.107666015625 751.3622436523438 1327.9010009765625 C 751.1555786132812 1327.6943359375 750.9889526367188 1327.44775390625 750.8622436523438 1327.1610107421875 C 750.7422485351562 1326.881103515625 750.6822509765625 1326.5810546875 750.6822509765625 1326.260986328125 L 750.6822509765625 1318.4010009765625 C 750.6822509765625 1318.0810546875 750.7422485351562 1317.781005859375 750.8622436523438 1317.5010986328125 C 750.9889526367188 1317.21435546875 751.1555786132812 1316.9676513671875 751.3622436523438 1316.760986328125 C 751.5689086914062 1316.5543212890625 751.812255859375 1316.3909912109375 752.09228515625 1316.27099609375 C 752.3722534179688 1316.1510009765625 752.6689453125 1316.091064453125 752.9822387695312 1316.091064453125 L 759.1822509765625 1316.091064453125 C 759.5022583007812 1316.091064453125 759.7989501953125 1316.1510009765625 760.072265625 1316.27099609375 C 760.352294921875 1316.3909912109375 760.5955810546875 1316.5543212890625 760.80224609375 1316.760986328125 C 761.0089111328125 1316.9676513671875 761.1722412109375 1317.21435546875 761.2922973632812 1317.5010986328125 C 761.4122924804688 1317.781005859375 761.4722900390625 1318.0810546875 761.4722900390625 1318.4010009765625 L 761.4722900390625 1326.260986328125 M 752.9822387695312 1318.4010009765625 L 752.9822387695312 1326.260986328125 L 759.1822509765625 1326.260986328125 L 759.1822509765625 1318.4010009765625 L 752.9822387695312 1318.4010009765625 ZM 776.357177734375 1328.571044921875 L 774.0471801757812 1328.571044921875 L 774.0471801757812 1318.4010009765625 L 767.6171264648438 1318.4010009765625 L 767.6171264648438 1328.571044921875 L 765.317138671875 1328.571044921875 L 765.317138671875 1316.091064453125 L 767.6171264648438 1316.091064453125 L 767.6171264648438 1318.291015625 C 767.6304931640625 1317.9910888671875 767.7005004882812 1317.704345703125 767.8271484375 1317.4310302734375 C 767.9537963867188 1317.1644287109375 768.1204833984375 1316.9310302734375 768.3271484375 1316.7310791015625 C 768.5338134765625 1316.531005859375 768.7738037109375 1316.3743896484375 769.0471801757812 1316.260986328125 C 769.3204956054688 1316.147705078125 769.6138305664062 1316.091064453125 769.9271850585938 1316.091064453125 L 774.0471801757812 1316.091064453125 C 774.3671264648438 1316.091064453125 774.6671752929688 1316.1510009765625 774.9471435546875 1316.27099609375 C 775.2338256835938 1316.3909912109375 775.48046875 1316.5543212890625 775.6871337890625 1316.760986328125 C 775.893798828125 1316.9676513671875 776.05712890625 1317.21435546875 776.1771850585938 1317.5010986328125 C 776.2971801757812 1317.781005859375 776.357177734375 1318.0810546875 776.357177734375 1318.4010009765625 L 776.357177734375 1328.571044921875 ZM 784.828125 1313.591064453125 L 784.828125 1316.091064453125 L 788.9281616210938 1316.091064453125 L 788.9281616210938 1318.4010009765625 L 784.828125 1318.4010009765625 L 784.828125 1328.571044921875 L 782.5181274414062 1328.571044921875 L 782.5181274414062 1318.4010009765625 L 779.4781494140625 1318.4010009765625 L 779.4781494140625 1316.091064453125 L 782.5181274414062 1316.091064453125 L 782.5181274414062 1313.591064453125 C 782.5181274414062 1313.27099609375 782.578125 1312.974365234375 782.6981201171875 1312.7010498046875 C 782.8248291015625 1312.4210205078125 782.991455078125 1312.17431640625 783.1981201171875 1311.9610595703125 C 783.4114990234375 1311.75439453125 783.6581420898438 1311.591064453125 783.9381103515625 1311.4710693359375 C 784.2181396484375 1311.3443603515625 784.5148315429688 1311.281005859375 784.828125 1311.281005859375 L 788.9281616210938 1311.281005859375 L 788.9281616210938 1313.591064453125 L 784.828125 1313.591064453125 ZM 794.4860229492188 1316.091064453125 L 794.4860229492188 1328.571044921875 L 792.176025390625 1328.571044921875 L 792.176025390625 1316.091064453125 L 794.4860229492188 1316.091064453125 M 792.0560302734375 1311.281005859375 L 794.5960693359375 1311.281005859375 L 794.5960693359375 1313.6910400390625 L 792.0560302734375 1313.6910400390625 L 792.0560302734375 1311.281005859375 ZM 798.4419555664062 1318.4010009765625 C 798.4419555664062 1318.0810546875 798.501953125 1317.781005859375 798.6219482421875 1317.5010986328125 C 798.7486572265625 1317.21435546875 798.915283203125 1316.9676513671875 799.1219482421875 1316.760986328125 C 799.32861328125 1316.5543212890625 799.5719604492188 1316.3909912109375 799.8519897460938 1316.27099609375 C 800.1319580078125 1316.1510009765625 800.4286499023438 1316.091064453125 800.741943359375 1316.091064453125 L 804.8819580078125 1316.091064453125 C 805.1819458007812 1316.091064453125 805.4686279296875 1316.147705078125 805.741943359375 1316.260986328125 C 806.0153198242188 1316.3743896484375 806.2553100585938 1316.531005859375 806.4619750976562 1316.7310791015625 C 806.6686401367188 1316.9310302734375 806.838623046875 1317.1644287109375 806.9719848632812 1317.4310302734375 C 807.0986328125 1317.704345703125 807.165283203125 1317.9910888671875 807.1719970703125 1318.291015625 L 807.1719970703125 1316.091064453125 L 809.4819946289062 1316.091064453125 L 809.4819946289062 1331.301025390625 C 809.4819946289062 1331.62109375 809.4219970703125 1331.9210205078125 809.302001953125 1332.2010498046875 C 809.1819458007812 1332.4810791015625 809.0186157226562 1332.7276611328125 808.8119506835938 1332.9410400390625 C 808.6052856445312 1333.147705078125 808.358642578125 1333.31103515625 808.0719604492188 1333.4310302734375 C 807.7919921875 1333.551025390625 807.491943359375 1333.611083984375 807.1719970703125 1333.611083984375 L 799.8819580078125 1333.611083984375 L 799.8819580078125 1331.301025390625 L 807.1719970703125 1331.301025390625 L 807.1719970703125 1328.091064453125 L 800.741943359375 1328.091064453125 C 800.4286499023438 1328.091064453125 800.1319580078125 1328.031005859375 799.8519897460938 1327.9110107421875 C 799.5719604492188 1327.791015625 799.32861328125 1327.627685546875 799.1219482421875 1327.4210205078125 C 798.915283203125 1327.21435546875 798.7486572265625 1326.9676513671875 798.6219482421875 1326.6810302734375 C 798.501953125 1326.4010009765625 798.4419555664062 1326.10107421875 798.4419555664062 1325.781005859375 L 798.4419555664062 1318.4010009765625 M 807.1719970703125 1325.781005859375 L 807.1719970703125 1318.4010009765625 L 800.741943359375 1318.4010009765625 L 800.741943359375 1325.781005859375 L 807.1719970703125 1325.781005859375 ZM 813.3229370117188 1316.091064453125 L 815.6229248046875 1316.091064453125 L 815.6229248046875 1326.260986328125 L 822.052978515625 1326.260986328125 L 822.052978515625 1316.091064453125 L 824.3629760742188 1316.091064453125 L 824.3629760742188 1328.571044921875 L 822.052978515625 1328.571044921875 L 822.052978515625 1326.4610595703125 C 822.032958984375 1326.7476806640625 821.956298828125 1327.02099609375 821.8229370117188 1327.281005859375 C 821.6896362304688 1327.541015625 821.5195922851562 1327.764404296875 821.3129272460938 1327.9510498046875 C 821.1062622070312 1328.1444091796875 820.86962890625 1328.2977294921875 820.6029663085938 1328.4110107421875 C 820.3363037109375 1328.5177001953125 820.0562744140625 1328.571044921875 819.762939453125 1328.571044921875 L 815.6229248046875 1328.571044921875 C 815.3096313476562 1328.571044921875 815.012939453125 1328.510986328125 814.7329711914062 1328.3909912109375 C 814.4529418945312 1328.27099609375 814.2095947265625 1328.107666015625 814.0029296875 1327.9010009765625 C 813.7962646484375 1327.6943359375 813.629638671875 1327.44775390625 813.5029296875 1327.1610107421875 C 813.3829345703125 1326.881103515625 813.3229370117188 1326.5810546875 813.3229370117188 1326.260986328125 L 813.3229370117188 1316.091064453125 ZM 830.50390625 1318.4010009765625 L 830.50390625 1328.571044921875 L 828.2039184570312 1328.571044921875 L 828.2039184570312 1316.091064453125 L 830.50390625 1316.091064453125 L 830.50390625 1318.291015625 C 830.5172729492188 1317.9910888671875 830.5872802734375 1317.704345703125 830.7139282226562 1317.4310302734375 C 830.840576171875 1317.1644287109375 831.0072631835938 1316.9310302734375 831.2139282226562 1316.7310791015625 C 831.4205932617188 1316.531005859375 831.6605834960938 1316.3743896484375 831.9339599609375 1316.260986328125 C 832.207275390625 1316.147705078125 832.5006103515625 1316.091064453125 832.81396484375 1316.091064453125 L 835.263916015625 1316.091064453125 C 835.5839233398438 1316.091064453125 835.880615234375 1316.1510009765625 836.1539306640625 1316.27099609375 C 836.4339599609375 1316.3909912109375 836.6806030273438 1316.5543212890625 836.8939208984375 1316.760986328125 C 837.1005859375 1316.9676513671875 837.263916015625 1317.21435546875 837.3839111328125 1317.5010986328125 C 837.5106201171875 1317.781005859375 837.5739135742188 1318.0810546875 837.5739135742188 1318.4010009765625 L 837.5739135742188 1320.510986328125 L 835.263916015625 1320.510986328125 L 835.263916015625 1318.4010009765625 L 830.50390625 1318.4010009765625 ZM 840.436767578125 1323.12109375 C 840.436767578125 1322.801025390625 840.4967651367188 1322.5010986328125 840.6167602539062 1322.2210693359375 C 840.7434692382812 1321.94775390625 840.9100952148438 1321.704345703125 841.1167602539062 1321.4910888671875 C 841.3234252929688 1321.284423828125 841.5667724609375 1321.11767578125 841.8468017578125 1320.9910888671875 C 842.1267700195312 1320.87109375 842.4234619140625 1320.81103515625 842.7367553710938 1320.81103515625 L 848.686767578125 1320.81103515625 L 848.686767578125 1318.4010009765625 L 841.1567993164062 1318.4010009765625 L 841.1567993164062 1316.091064453125 L 848.686767578125 1316.091064453125 C 849.0067749023438 1316.091064453125 849.3067626953125 1316.1510009765625 849.5867919921875 1316.27099609375 C 849.8734741210938 1316.3909912109375 850.1201171875 1316.5543212890625 850.3267822265625 1316.760986328125 C 850.533447265625 1316.9676513671875 850.69677734375 1317.21435546875 850.8167724609375 1317.5010986328125 C 850.936767578125 1317.781005859375 850.9967651367188 1318.0810546875 850.9967651367188 1318.4010009765625 L 850.9967651367188 1328.571044921875 L 848.686767578125 1328.571044921875 L 848.686767578125 1326.4610595703125 C 848.6668090820312 1326.7476806640625 848.590087890625 1327.02099609375 848.456787109375 1327.281005859375 C 848.3234252929688 1327.541015625 848.1534423828125 1327.764404296875 847.94677734375 1327.9510498046875 C 847.7401123046875 1328.1444091796875 847.5034790039062 1328.2977294921875 847.2367553710938 1328.4110107421875 C 846.9700927734375 1328.5177001953125 846.6901245117188 1328.571044921875 846.3967895507812 1328.571044921875 L 842.7367553710938 1328.571044921875 C 842.4234619140625 1328.571044921875 842.1267700195312 1328.510986328125 841.8468017578125 1328.3909912109375 C 841.5667724609375 1328.27099609375 841.3234252929688 1328.107666015625 841.1167602539062 1327.9010009765625 C 840.9100952148438 1327.6943359375 840.7434692382812 1327.44775390625 840.6167602539062 1327.1610107421875 C 840.4967651367188 1326.881103515625 840.436767578125 1326.5810546875 840.436767578125 1326.260986328125 L 840.436767578125 1323.12109375 M 842.7367553710938 1326.260986328125 L 848.686767578125 1326.260986328125 L 848.686767578125 1323.12109375 L 842.7367553710938 1323.12109375 L 842.7367553710938 1326.260986328125 ZM 854.1173706054688 1316.091064453125 L 857.1573486328125 1316.091064453125 L 857.1573486328125 1312.2510986328125 L 859.4673461914062 1312.2510986328125 L 859.4673461914062 1316.091064453125 L 863.5673828125 1316.091064453125 L 863.5673828125 1318.4010009765625 L 859.4673461914062 1318.4010009765625 L 859.4673461914062 1326.260986328125 L 863.5673828125 1326.260986328125 L 863.5673828125 1328.571044921875 L 859.4673461914062 1328.571044921875 C 859.154052734375 1328.571044921875 858.8573608398438 1328.510986328125 858.5773315429688 1328.3909912109375 C 858.29736328125 1328.27099609375 858.0507202148438 1328.107666015625 857.8373413085938 1327.9010009765625 C 857.6306762695312 1327.6943359375 857.4640502929688 1327.44775390625 857.3373413085938 1327.1610107421875 C 857.2173461914062 1326.881103515625 857.1573486328125 1326.5810546875 857.1573486328125 1326.260986328125 L 857.1573486328125 1318.4010009765625 L 854.1173706054688 1318.4010009765625 L 854.1173706054688 1316.091064453125 ZM 869.8399658203125 1316.091064453125 L 869.8399658203125 1328.571044921875 L 867.5299682617188 1328.571044921875 L 867.5299682617188 1316.091064453125 L 869.8399658203125 1316.091064453125 M 867.4099731445312 1311.281005859375 L 869.9500122070312 1311.281005859375 L 869.9500122070312 1313.6910400390625 L 867.4099731445312 1313.6910400390625 L 867.4099731445312 1311.281005859375 ZM 884.5859985351562 1326.260986328125 C 884.5859985351562 1326.5810546875 884.5260009765625 1326.881103515625 884.406005859375 1327.1610107421875 C 884.2859497070312 1327.44775390625 884.1226196289062 1327.6943359375 883.9159545898438 1327.9010009765625 C 883.7092895507812 1328.107666015625 883.4660034179688 1328.27099609375 883.1859741210938 1328.3909912109375 C 882.9126586914062 1328.510986328125 882.615966796875 1328.571044921875 882.2959594726562 1328.571044921875 L 876.095947265625 1328.571044921875 C 875.7826538085938 1328.571044921875 875.4859619140625 1328.510986328125 875.2059936523438 1328.3909912109375 C 874.9259643554688 1328.27099609375 874.6826171875 1328.107666015625 874.4759521484375 1327.9010009765625 C 874.269287109375 1327.6943359375 874.1026611328125 1327.44775390625 873.9759521484375 1327.1610107421875 C 873.85595703125 1326.881103515625 873.7959594726562 1326.5810546875 873.7959594726562 1326.260986328125 L 873.7959594726562 1318.4010009765625 C 873.7959594726562 1318.0810546875 873.85595703125 1317.781005859375 873.9759521484375 1317.5010986328125 C 874.1026611328125 1317.21435546875 874.269287109375 1316.9676513671875 874.4759521484375 1316.760986328125 C 874.6826171875 1316.5543212890625 874.9259643554688 1316.3909912109375 875.2059936523438 1316.27099609375 C 875.4859619140625 1316.1510009765625 875.7826538085938 1316.091064453125 876.095947265625 1316.091064453125 L 882.2959594726562 1316.091064453125 C 882.615966796875 1316.091064453125 882.9126586914062 1316.1510009765625 883.1859741210938 1316.27099609375 C 883.4660034179688 1316.3909912109375 883.7092895507812 1316.5543212890625 883.9159545898438 1316.760986328125 C 884.1226196289062 1316.9676513671875 884.2859497070312 1317.21435546875 884.406005859375 1317.5010986328125 C 884.5260009765625 1317.781005859375 884.5859985351562 1318.0810546875 884.5859985351562 1318.4010009765625 L 884.5859985351562 1326.260986328125 M 876.095947265625 1318.4010009765625 L 876.095947265625 1326.260986328125 L 882.2959594726562 1326.260986328125 L 882.2959594726562 1318.4010009765625 L 876.095947265625 1318.4010009765625 ZM 899.4708862304688 1328.571044921875 L 897.160888671875 1328.571044921875 L 897.160888671875 1318.4010009765625 L 890.7308349609375 1318.4010009765625 L 890.7308349609375 1328.571044921875 L 888.4308471679688 1328.571044921875 L 888.4308471679688 1316.091064453125 L 890.7308349609375 1316.091064453125 L 890.7308349609375 1318.291015625 C 890.7442016601562 1317.9910888671875 890.814208984375 1317.704345703125 890.9408569335938 1317.4310302734375 C 891.0675048828125 1317.1644287109375 891.2341918945312 1316.9310302734375 891.4408569335938 1316.7310791015625 C 891.6475219726562 1316.531005859375 891.8875122070312 1316.3743896484375 892.160888671875 1316.260986328125 C 892.4342041015625 1316.147705078125 892.7275390625 1316.091064453125 893.0408935546875 1316.091064453125 L 897.160888671875 1316.091064453125 C 897.4808349609375 1316.091064453125 897.7808837890625 1316.1510009765625 898.0608520507812 1316.27099609375 C 898.3475341796875 1316.3909912109375 898.5941772460938 1316.5543212890625 898.8008422851562 1316.760986328125 C 899.0075073242188 1316.9676513671875 899.1708374023438 1317.21435546875 899.2908935546875 1317.5010986328125 C 899.410888671875 1317.781005859375 899.4708862304688 1318.0810546875 899.4708862304688 1318.4010009765625 L 899.4708862304688 1328.571044921875 Z" transform="matrix(2.9283032417297363, 0, 0, 2.9283032417297363, -1335.8623046875, -2535.07275390625)" style="fill: rgb(51, 51, 51); white-space: pre; color: rgb(51, 51, 51);"/><path d="M 5.190000057220459 -212.33892822265625 L 102.70999908447266 -212.33892822265625 L 102.70999908447266 -194.90892028808594 L 62.65999984741211 -194.90892028808594 L 62.65999984741211 -90.40892028808594 L 45.22999954223633 -90.40892028808594 L 45.22999954223633 -194.90892028808594 L 5.190000057220459 -194.90892028808594 L 5.190000057220459 -212.33892822265625 Z" transform="matrix(2.897036552429199, 0.017913687974214554, -0.017913687974214554, 2.897036552429199, 856.83154296875, 1414.868896484375)" style="white-space: pre; stroke: rgb(0, 0, 0); stroke-width: 0;"/><path d="M 86.94000244140625 -52.98703384399414 L 29.389999389648438 -52.98703384399414 L 29.389999389648438 -33.797035217285156 L 86.94000244140625 -33.797035217285156 L 86.94000244140625 -17.71703338623047 L 29.389999389648438 -17.71703338623047 C 27.209999084472656 -17.71703338623047 25.139999389648438 -18.14036750793457 23.18000030517578 -18.98703384399414 C 21.219999313354492 -19.82703399658203 19.520000457763672 -20.96703338623047 18.079999923706055 -22.407033920288086 C 16.639999389648438 -23.853700637817383 15.49666690826416 -25.55703353881836 14.649999618530273 -27.517032623291016 C 13.8100004196167 -29.470367431640625 13.390000343322754 -31.56369972229004 13.390000343322754 -33.797035217285156 L 13.390000343322754 -88.57703399658203 C 13.390000343322754 -90.80370330810547 13.8100004196167 -92.89703369140625 14.649999618530273 -94.8570327758789 C 15.49666690826416 -96.81703186035156 16.639999389648438 -98.52037048339844 18.079999923706055 -99.96703338623047 C 19.520000457763672 -101.40703582763672 21.219999313354492 -102.54703521728516 23.18000030517578 -103.38703155517578 C 25.139999389648438 -104.23370361328125 27.209999084472656 -104.65703582763672 29.389999389648438 -104.65703582763672 L 70.86000061035156 -104.65703582763672 C 73.086669921875 -104.65703582763672 75.18000030517578 -104.23370361328125 77.13999938964844 -103.38703155517578 C 79.0999984741211 -102.54703521728516 80.80333709716797 -101.40703582763672 82.25 -99.96703338623047 C 83.69000244140625 -98.52037048339844 84.83000183105469 -96.81703186035156 85.66999816894531 -94.8570327758789 C 86.51667022705078 -92.89703369140625 86.94000244140625 -90.80370330810547 86.94000244140625 -88.57703399658203 L 86.94000244140625 -52.98703384399414 M 29.389999389648438 -88.57703399658203 L 29.389999389648438 -69.06703186035156 L 70.86000061035156 -69.06703186035156 L 70.86000061035156 -88.57703399658203 L 29.389999389648438 -88.57703399658203 ZM 129.70733642578125 -88.57703399658203 L 129.70733642578125 -33.797035217285156 L 171.17733764648438 -33.797035217285156 L 171.17733764648438 -48.497032165527344 L 187.25733947753906 -48.497032165527344 L 187.25733947753906 -33.797035217285156 C 187.25733947753906 -31.56369972229004 186.83401489257812 -29.470367431640625 185.98733520507812 -27.517032623291016 C 185.1473388671875 -25.55703353881836 184.00733947753906 -23.853700637817383 182.5673370361328 -22.407033920288086 C 181.12066650390625 -20.96703338623047 179.41732788085938 -19.82703399658203 177.45733642578125 -18.98703384399414 C 175.49734497070312 -18.14036750793457 173.4040069580078 -17.71703338623047 171.17733764648438 -17.71703338623047 L 129.70733642578125 -17.71703338623047 C 127.52733612060547 -17.71703338623047 125.45733642578125 -18.14036750793457 123.4973373413086 -18.98703384399414 C 121.53733825683594 -19.82703399658203 119.83734130859375 -20.96703338623047 118.3973388671875 -22.407033920288086 C 116.95733642578125 -23.853700637817383 115.81400299072266 -25.55703353881836 114.96733856201172 -27.517032623291016 C 114.12733459472656 -29.470367431640625 113.70733642578125 -31.56369972229004 113.70733642578125 -33.797035217285156 L 113.70733642578125 -88.57703399658203 C 113.70733642578125 -90.80370330810547 114.12733459472656 -92.89703369140625 114.96733856201172 -94.8570327758789 C 115.81400299072266 -96.81703186035156 116.95733642578125 -98.52037048339844 118.3973388671875 -99.96703338623047 C 119.83734130859375 -101.40703582763672 121.53733825683594 -102.54703521728516 123.4973373413086 -103.38703155517578 C 125.45733642578125 -104.23370361328125 127.52733612060547 -104.65703582763672 129.70733642578125 -104.65703582763672 L 171.17733764648438 -104.65703582763672 C 173.4040069580078 -104.65703582763672 175.49734497070312 -104.23370361328125 177.45733642578125 -103.38703155517578 C 179.41732788085938 -102.54703521728516 181.12066650390625 -101.40703582763672 182.5673370361328 -99.96703338623047 C 184.00733947753906 -98.52037048339844 185.1473388671875 -96.81703186035156 185.98733520507812 -94.8570327758789 C 186.83401489257812 -92.89703369140625 187.25733947753906 -90.80370330810547 187.25733947753906 -88.57703399658203 L 187.25733947753906 -73.87702941894531 L 171.17733764648438 -73.87702941894531 L 171.17733764648438 -88.57703399658203 L 129.70733642578125 -88.57703399658203 ZM 290.9246826171875 -17.71703338623047 L 274.83465576171875 -17.71703338623047 L 274.83465576171875 -88.57703399658203 L 230.02467346191406 -88.57703399658203 L 230.02467346191406 -17.71703338623047 L 214.02467346191406 -17.71703338623047 L 214.02467346191406 -138.12704467773438 L 230.02467346191406 -138.12704467773438 L 230.02467346191406 -89.3070297241211 C 230.13134765625 -91.43370056152344 230.621337890625 -93.43370056152344 231.4946746826172 -95.3070297241211 C 232.36134338378906 -97.1870346069336 233.51800537109375 -98.82036590576172 234.9646759033203 -100.20703125 C 236.40467834472656 -101.59369659423828 238.0780029296875 -102.68370056152344 239.98468017578125 -103.47703552246094 C 241.88467407226562 -104.26370239257812 243.9246826171875 -104.65703582763672 246.10467529296875 -104.65703582763672 L 274.83465576171875 -104.65703582763672 C 277.0679931640625 -104.65703582763672 279.1646728515625 -104.23370361328125 281.1246643066406 -103.38703155517578 C 283.08465576171875 -102.54703521728516 284.78466796875 -101.40703582763672 286.22467041015625 -99.96703338623047 C 287.67132568359375 -98.52037048339844 288.8146667480469 -96.81703186035156 289.6546630859375 -94.8570327758789 C 290.5013427734375 -92.89703369140625 290.9246826171875 -90.80370330810547 290.9246826171875 -88.57703399658203 L 290.9246826171875 -17.71703338623047 Z" transform="matrix(1, 0, 0, 1, 1047.1336669921875, 1136.16552734375)" style="white-space: pre; stroke: rgb(0, 0, 0); stroke-width: 0;"/><path d="M 671.57568359375 1237.54833984375 L 1309.97021484375 1239.904052734375 C 1309.97021484375 1239.904052734375 675.410888671875 1240.5343017578125 671.57568359375 1237.54833984375 Z" style="fill: rgb(0, 0, 0); fill-opacity: 1; stroke: rgb(0, 0, 0); stroke-opacity: 1; stroke-width: 8; paint-order: fill;"/></g></svg>