<?xml version="1.0" encoding="utf-8"?>
<!-- Generator: Adobe Illustrator 23.0.0, SVG Export Plug-In . SVG Version: 6.00 Build 0)  -->
<svg version="1.1" id="Calque_1" xmlns="http://www.w3.org/2000/svg" xmlns:xlink="http://www.w3.org/1999/xlink" x="0px" y="0px"
	 viewBox="0 0 2048 2048" style="enable-background:new 0 0 2048 2048;" xml:space="preserve">
<style type="text/css">
	.st0{fill:#FFFFFF;stroke:#555555;stroke-width:20;}
	.st1{fill:none;stroke:#555555;stroke-width:20;}
	.st2{fill:none;stroke:#000000;stroke-width:20;}
</style>
<circle class="st0" cx="768" cy="634.1" r="64"/>
<line class="st1" x1="512" y1="634.1" x2="704" y2="634.1"/>
<circle class="st0" cx="688.4" cy="896" r="64"/>
<polyline class="st1" points="752.4,896 907.6,896 946.4,960 1024,960 "/>
<g>
	<path d="M694.6,749.1v108.5h-24.6V749.1h-56.4v108.5h-24.5V724.5h24.5V748c0.2-3.3,0.9-6.3,2.3-9.2c1.3-2.9,3.1-5.4,5.3-7.5
		c2.2-2.1,4.8-3.8,7.7-5c2.9-1.2,6-1.8,9.4-1.8h31.8c3.3,0,6.3,0.6,9.3,1.8c2.9,1.2,5.5,2.9,7.8,5s4.1,4.6,5.4,7.5s2.1,5.9,2.2,9.2
		c0.2-3.3,0.9-6.3,2.2-9.2c1.3-2.9,3-5.4,5.3-7.5c2.2-2.1,4.8-3.8,7.7-5c2.9-1.2,6-1.8,9.4-1.8h31.8c3.4,0,6.6,0.6,9.6,1.9
		c3,1.3,5.6,3,7.8,5.3c2.2,2.2,4,4.8,5.3,7.8c1.3,3,1.9,6.2,1.9,9.6v108.5h-24.6V749.1H694.6z"/>
	<path d="M803.6,678.4h143.4V704h-58.9v153.6h-25.6V704h-58.9V678.4z"/>
</g>
<path class="st2" d="M543.1,512h448c18.2,0,32.9,14.7,32.9,32.9v446.2c0,18.2-14.7,32.9-32.9,32.9H544.9
	c-18.2,0-32.9-14.7-32.9-32.9v-448C512,525.9,525.9,512,543.1,512z"/>
</svg>
