<?xml version="1.0" encoding="utf-8"?>
<!-- Generator: Adobe Illustrator 23.0.0, SVG Export Plug-In . SVG Version: 6.00 Build 0)  -->
<svg version="1.1" id="Calque_1" xmlns="http://www.w3.org/2000/svg" xmlns:xlink="http://www.w3.org/1999/xlink" x="0px" y="0px"
	 viewBox="0 0 2048 2048" style="enable-background:new 0 0 2048 2048;" xml:space="preserve">
<style type="text/css">
	.st0{fill:#FFFFFF;stroke:#555555;stroke-width:75;}
	.st1{fill:none;stroke:#555555;stroke-width:75;}
	.st2{fill:none;stroke:#000000;stroke-width:75;}
</style>
<circle class="st0" cx="1024" cy="540.2" r="231.3"/>
<line class="st1" x1="99" y1="540.2" x2="792.8" y2="540.2"/>
<circle class="st0" cx="736.4" cy="1486.5" r="231.3"/>
<polyline class="st1" points="967.6,1486.5 1458.3,1486.5 1668.6,1717.8 1949,1717.8 "/>
<g>
	<path d="M758.8,955.7v392h-88.9v-392H466.1v392h-88.5V866.8h88.5v84.9c0.7-11.9,3.3-22.8,8.3-33.2c4.7-10.5,11.2-19.5,19.2-27.1
		c7.9-7.6,17.3-13.7,27.8-18.1c10.5-4.3,21.7-6.5,34-6.5h114.9c11.9,0,22.8,2.2,33.6,6.5c10.5,4.3,19.9,10.5,28.2,18.1
		c8.3,7.6,14.8,16.6,19.5,27.1c4.7,10.5,7.6,21.3,7.9,33.2c0.7-11.9,3.3-22.8,7.9-33.2c4.7-10.5,10.8-19.5,19.2-27.1
		c7.9-7.6,17.3-13.7,27.8-18.1s21.7-6.5,34-6.5h114.9c12.3,0,23.8,2.2,34.7,6.9s20.2,10.8,28.2,19.2c7.9,7.9,14.5,17.3,19.2,28.2
		s6.9,22.4,6.9,34.7v392h-88.9v-392H758.8z"/>
	<path d="M1152.6,700.3h518.1v92.5H1458v555h-92.5v-555h-212.8V700.3z"/>
</g>
<path class="st2" d="M133.1,99h1775.4c22.3,0,40.6,18.3,40.6,40.6v1768.9c0,22.3-18.3,40.6-40.6,40.6H139.6
	c-22.3,0-40.6-18.3-40.6-40.6V133.1C99,114.3,114.3,99,133.1,99z"/>
</svg>
