<?xml version="1.0" encoding="utf-8"?>
<!-- Generator: Adobe Illustrator 23.0.0, SVG Export Plug-In . SVG Version: 6.00 Build 0)  -->
<svg version="1.1" id="master-artboard" xmlns="http://www.w3.org/2000/svg" xmlns:xlink="http://www.w3.org/1999/xlink" x="0px"
	 y="0px" viewBox="0 0 975.3 912.7" style="enable-background:new 0 0 975.3 912.7;" xml:space="preserve">
<style type="text/css">
	.st0{fill:none;stroke:#FFFFFF;stroke-width:10;stroke-miterlimit:10;}
	.st1{fill:#FFFFFF;stroke:#FFFFFF;stroke-width:10;stroke-miterlimit:10;}
	.st2{fill:#FFFFFF;}
	.st3{stroke:#FFFFFF;stroke-width:8;}
</style>
<title>logov2</title>
<path class="st0" d="M306.1,281.4h38h135.1h204.2v366.5H306.1V281.4z"/>
<path class="st1" d="M343,193.4v88"/>
<path class="st0" d="M358.2,178.1c0,8.4-6.8,15.2-15.2,15.2l0,0c-8.4,0-15.2-6.8-15.2-15.2l0,0c0-8.4,6.8-15.2,15.2-15.2l0,0
	C351.4,162.9,358.2,169.7,358.2,178.1L358.2,178.1z"/>
<path class="st0" d="M343,242.1l-36.9-32.3v-88.3"/>
<path class="st0" d="M406.8,234.4c0,8.4-6.8,15.2-15.2,15.2l0,0c-8.4,0-15.2-6.8-15.2-15.2l0,0c0-8.4,6.8-15.2,15.2-15.2l0,0
	C400,219.2,406.8,226,406.8,234.4L406.8,234.4z"/>
<path class="st0" d="M321.3,106.4c0,8.4-6.8,15.2-15.2,15.2l0,0c-8.4,0-15.2-6.8-15.2-15.2l0,0c0-8.4,6.8-15.2,15.2-15.2l0,0
	C314.5,91.2,321.3,98,321.3,106.4L321.3,106.4z"/>
<path class="st0" d="M406.8,234.4l72.4-0.6v47.5"/>
<path class="st0" d="M479.2,233.8V187L455,149.2V74.3"/>
<path class="st0" d="M470.3,59.1c0,8.4-6.8,15.2-15.2,15.2l0,0c-8.4,0-15.2-6.8-15.2-15.2l0,0c0-8.4,6.8-15.2,15.2-15.2l0,0
	C463.4,43.9,470.3,50.7,470.3,59.1L470.3,59.1z"/>
<path class="st0" d="M534.8,89.6c0,8.4-6.8,15.2-15.2,15.2c-8.4,0-15.2-6.8-15.2-15.2l0,0c0-8.4,6.8-15.2,15.2-15.2l0,0
	C528,74.3,534.8,81.2,534.8,89.6z"/>
<path class="st0" d="M579.4,89.6c0,8.4-6.8,15.2-15.2,15.2S549,98,549,89.6s6.8-15.2,15.2-15.2C572.6,74.3,579.4,81.2,579.4,89.6z"
	/>
<path class="st0" d="M665.5,162.9c0,8.4-6.8,15.2-15.2,15.2s-15.2-6.8-15.2-15.2s6.8-15.2,15.2-15.2S665.5,154.5,665.5,162.9z"/>
<path class="st0" d="M859.6,322.8c0,8.4-6.8,15.2-15.2,15.2s-15.2-6.8-15.2-15.2s6.8-15.2,15.2-15.2S859.6,314.4,859.6,322.8z"/>
<path class="st0" d="M917.1,396.7c0,8.4-6.8,15.2-15.2,15.2s-15.2-6.8-15.2-15.2c0-8.4,6.8-15.2,15.2-15.2S917.1,388.2,917.1,396.7z
	"/>
<path class="st0" d="M883,443.1c0,8.4-6.8,15.2-15.2,15.2s-15.2-6.8-15.2-15.2c0-8.4,6.8-15.2,15.2-15.2S883,434.6,883,443.1z"/>
<path class="st0" d="M890.1,503.3c0,8.4-6.8,15.2-15.2,15.2s-15.2-6.8-15.2-15.2c0-8.4,6.8-15.2,15.2-15.2S890.1,494.9,890.1,503.3z
	"/>
<path class="st0" d="M816.1,602.5c0,8.4-6.8,15.2-15.2,15.2s-15.2-6.8-15.2-15.2s6.8-15.2,15.2-15.2S816.1,594,816.1,602.5z"/>
<path class="st0" d="M743.9,479.8c0,8.4-6.8,15.2-15.2,15.2s-15.2-6.8-15.2-15.2s6.8-15.2,15.2-15.2
	C737.1,464.6,743.9,471.4,743.9,479.8z"/>
<path class="st0" d="M215.1,307.5c0,8.4-6.8,15.2-15.2,15.2l0,0c-8.4,0-15.2-6.8-15.2-15.2l0,0c0-8.4,6.8-15.2,15.2-15.2l0,0
	C208.3,292.3,215.1,299.1,215.1,307.5L215.1,307.5z"/>
<path class="st0" d="M269,336c0,8.4-6.8,15.2-15.2,15.2l0,0c-8.4,0-15.2-6.8-15.2-15.2l0,0c0-8.4,6.8-15.2,15.2-15.2l0,0
	C262.2,320.8,269,327.6,269,336L269,336z"/>
<path class="st0" d="M265.6,483.2c0,8.4-6.8,15.2-15.2,15.2c-8.4,0-15.2-6.8-15.2-15.2c0-8.4,6.8-15.2,15.2-15.2
	C258.8,468,265.6,474.8,265.6,483.2z"/>
<path class="st0" d="M131.6,438c0,8.4-6.8,15.2-15.2,15.2s-15.2-6.8-15.2-15.2c0-8.4,6.8-15.2,15.2-15.2S131.6,429.6,131.6,438z"/>
<path class="st0" d="M71.8,469.4c0,8.5-6.9,15.3-15.3,15.3s-15.3-6.9-15.3-15.3s6.9-15.3,15.3-15.3S71.8,460.9,71.8,469.4z"/>
<path class="st0" d="M167.3,530.1c0,8.4-6.8,15.2-15.2,15.2s-15.2-6.8-15.2-15.2s6.8-15.2,15.2-15.2
	C160.5,514.8,167.3,521.7,167.3,530.1z"/>
<path class="st0" d="M126.6,576.4c0,8.4-6.8,15.2-15.2,15.2s-15.2-6.8-15.2-15.2s6.8-15.2,15.2-15.2S126.6,568,126.6,576.4z"/>
<path class="st0" d="M256.2,632.9c0,8.4-6.8,15.2-15.2,15.2s-15.2-6.8-15.2-15.2s6.8-15.2,15.2-15.2
	C249.3,617.7,256.2,624.5,256.2,632.9z"/>
<path class="st0" d="M466.5,787.3c0,8.4-6.8,15.2-15.2,15.2s-15.2-6.8-15.2-15.2s6.8-15.2,15.2-15.2S466.5,778.9,466.5,787.3z"/>
<path class="st0" d="M395.3,823.3c0,8.4-6.8,15.2-15.2,15.2s-15.2-6.8-15.2-15.2s6.8-15.2,15.2-15.2S395.3,814.9,395.3,823.3z"/>
<path class="st0" d="M523.4,697.5c0,8.4-6.8,15.2-15.2,15.2s-15.2-6.8-15.2-15.2s6.8-15.2,15.2-15.2S523.4,689.1,523.4,697.5z"/>
<path class="st0" d="M429.3,864.1c0,8.4-6.8,15.2-15.2,15.2s-15.2-6.8-15.2-15.2s6.8-15.2,15.2-15.2S429.3,855.7,429.3,864.1z"/>
<path class="st0" d="M568,823.3c0,8.4-6.8,15.2-15.2,15.2s-15.2-6.8-15.2-15.2s6.8-15.2,15.2-15.2S568,814.9,568,823.3z"/>
<path class="st0" d="M608.7,859.5c0,8.4-6.8,15.2-15.2,15.2s-15.2-6.8-15.2-15.2s6.8-15.2,15.2-15.2S608.7,851.1,608.7,859.5z"/>
<path class="st0" d="M646.9,774.5c0,8.4-6.8,15.2-15.2,15.2s-15.2-6.8-15.2-15.2s6.8-15.2,15.2-15.2S646.9,766.1,646.9,774.5z"/>
<path class="st0" d="M703.3,697.5c0,8.4-6.8,15.2-15.2,15.2s-15.2-6.8-15.2-15.2s6.8-15.2,15.2-15.2S703.3,689.1,703.3,697.5z"/>
<path class="st0" d="M519.6,104.8v67.7l29.3,29.4v79.5"/>
<path class="st0" d="M564.2,104.8v66.9l28.9,28.6v81"/>
<path class="st0" d="M548.9,242.1H593"/>
<path class="st0" d="M650.3,178.1v103.2"/>
<path class="st0" d="M829.2,322.8H683.5"/>
<path class="st0" d="M886.6,396.7h-85.7l-44.6-21.3h-72.9"/>
<path class="st0" d="M852.6,443.1h-51.7l-33.4-15.2l-11.1-5.1h-72.9"/>
<path class="st0" d="M785.1,389.1l-17.6,38.8"/>
<path class="st0" d="M859.6,503.3h-48.3l-35.1,36.1h-92.8"/>
<path class="st0" d="M728.7,495.1v44.4"/>
<path class="st0" d="M785.7,602.5H683.5"/>
<path class="st0" d="M672.9,697.5"/>
<path class="st0" d="M631.7,759.3V648.1"/>
<path class="st0" d="M672.9,697.5h-41.2"/>
<path class="st0" d="M593.4,844.3V648.1"/>
<path class="st0" d="M552.8,808.1v-86.7v-73.5"/>
<path class="st0" d="M593.4,722.2l-40.7-0.8"/>
<path class="st0" d="M451.2,772.1v-124"/>
<path class="st0" d="M493,697.5h-41.8"/>
<path class="st0" d="M414.1,848.9V746.2L385.5,728v-79.8"/>
<path class="st0" d="M380.1,808.1V764l-32.5-22.5v-66.6v-26.8"/>
<path class="st0" d="M385.5,677.3h-37.9"/>
<path class="st0" d="M126.6,576.4h179.5"/>
<path class="st0" d="M167.3,530.1h138.8"/>
<path class="st0" d="M250.4,498.4v31.7"/>
<path class="st0" d="M219.9,530.1v15.2l21.1,31.2v41.2"/>
<path class="st0" d="M215.1,307.5h91"/>
<path class="st0" d="M131.6,438h31.8l46.5-41.3h96.3"/>
<path class="st0" d="M71.8,469.4h90.8l46.5-36.5h97.1"/>
<path class="st0" d="M253.8,351.3v45.4"/>
<path class="st0" d="M282.6,396.7v36.2"/>
<path class="st2" d="M359.3,397.9v33.9h-7.7v-33.9H334v33.9h-7.7v-41.6h7.7v7.3c0.1-1,0.3-2,0.7-2.9c0.4-0.9,1-1.7,1.7-2.3
	c0.7-0.7,1.5-1.2,2.4-1.6s1.9-0.6,2.9-0.6h9.9c1,0,2,0.2,2.9,0.6s1.7,0.9,2.4,1.6c0.7,0.7,1.3,1.4,1.7,2.3c0.4,0.9,0.7,1.9,0.7,2.9
	c0.1-1,0.3-2,0.7-2.9c0.4-0.9,1-1.7,1.6-2.3c0.7-0.7,1.5-1.2,2.4-1.6s1.9-0.6,2.9-0.6h9.9c1.1,0,2.1,0.2,3,0.6s1.8,0.9,2.4,1.6
	c0.7,0.7,1.2,1.5,1.6,2.4s0.6,1.9,0.6,3v33.9h-7.7v-33.9h-17.4V397.9z M432.6,414.9H405v9.2h27.5v7.7H405c-1,0-2-0.2-3-0.6
	c-0.9-0.4-1.8-0.9-2.4-1.6c-0.7-0.7-1.2-1.5-1.6-2.4s-0.6-1.9-0.6-3V398c0-1.1,0.2-2.1,0.6-3s1-1.8,1.6-2.4c0.7-0.7,1.5-1.2,2.4-1.6
	s1.9-0.6,3-0.6h19.8c1.1,0,2.1,0.2,3,0.6s1.8,0.9,2.4,1.6c0.7,0.7,1.2,1.5,1.6,2.4s0.6,1.9,0.6,3v16.9 M405,397.9v9.3h19.8v-9.3H405
	z M480.6,414.9H453v9.2h27.5v7.7H453c-1,0-2-0.2-3-0.6c-0.9-0.4-1.8-0.9-2.4-1.6c-0.7-0.7-1.2-1.5-1.6-2.4s-0.6-1.9-0.6-3V398
	c0-1.1,0.2-2.1,0.6-3s1-1.8,1.6-2.4c0.7-0.7,1.5-1.2,2.4-1.6s1.9-0.6,3-0.6h19.8c1.1,0,2.1,0.2,3,0.6s1.8,0.9,2.4,1.6
	c0.7,0.7,1.2,1.5,1.6,2.4s0.6,1.9,0.6,3v16.9 M453,397.9v9.3h19.8v-9.3H453z"/>
<path class="st2" d="M352.8,601.6v-23.5h12.9c3.8,0,5.7,1.9,5.7,5.7v3.3c0,3.8-1.9,5.7-5.7,5.7h-9.5v8.7L352.8,601.6 M356.1,589.5
	h9.3c0.9,0,1.5-0.2,1.9-0.6c0.4-0.4,0.6-1,0.6-1.9v-3c0-0.9-0.2-1.5-0.6-1.9s-1-0.6-1.9-0.6h-9.3V589.5z M376,581.5
	c0-0.5,0.1-0.9,0.3-1.3c0.2-0.4,0.4-0.8,0.7-1.1c0.3-0.3,0.7-0.5,1.1-0.7s0.8-0.3,1.3-0.3h12.8c0.5,0,0.9,0.1,1.3,0.3
	s0.8,0.4,1.1,0.7c0.3,0.3,0.5,0.7,0.7,1.1c0.2,0.4,0.3,0.8,0.3,1.3v3h-3.4v-3h-12.8v16.8h12.8v-3h3.4v3c0,0.5-0.1,0.9-0.3,1.3
	c-0.2,0.4-0.4,0.8-0.7,1.1c-0.3,0.3-0.7,0.5-1.1,0.7s-0.8,0.3-1.3,0.3h-12.8c-0.5,0-0.9-0.1-1.3-0.3s-0.8-0.4-1.1-0.7
	c-0.3-0.3-0.6-0.7-0.7-1.1c-0.2-0.4-0.3-0.8-0.3-1.3V581.5z M413.9,587.4v11h8.3v-3h3.2v3c0,0.4-0.1,0.9-0.3,1.3
	c-0.2,0.4-0.4,0.7-0.7,1c-0.3,0.3-0.6,0.5-1,0.7s-0.8,0.3-1.3,0.3h-8.3c-0.4,0-0.9-0.1-1.2-0.3c-0.4-0.2-0.7-0.4-1-0.7
	s-0.5-0.6-0.7-1s-0.3-0.8-0.3-1.3v-11c0-0.4,0.1-0.9,0.3-1.3c0.2-0.4,0.4-0.7,0.7-1c0.3-0.3,0.6-0.5,1-0.7s0.8-0.3,1.2-0.3h8.3
	c0.4,0,0.9,0.1,1.3,0.3s0.7,0.4,1,0.7s0.5,0.6,0.7,1s0.3,0.8,0.3,1.3v3h-3.2v-3H413.9z M446,598.4c0,0.4-0.1,0.9-0.3,1.3
	c-0.2,0.4-0.4,0.7-0.7,1c-0.3,0.3-0.6,0.5-1,0.7s-0.8,0.3-1.2,0.3h-8.7c-0.4,0-0.9-0.1-1.2-0.3c-0.4-0.2-0.7-0.4-1-0.7
	s-0.5-0.6-0.7-1s-0.3-0.8-0.3-1.3v-11c0-0.4,0.1-0.9,0.3-1.3c0.2-0.4,0.4-0.7,0.7-1c0.3-0.3,0.6-0.5,1-0.7s0.8-0.3,1.2-0.3h8.7
	c0.4,0,0.9,0.1,1.2,0.3c0.4,0.2,0.7,0.4,1,0.7s0.5,0.6,0.7,1s0.3,0.8,0.3,1.3V598.4 M434.1,587.4v11h8.7v-11H434.1z M466.8,601.6
	h-3.2v-14.3h-9v14.3h-3.2v-17.5h3.2v3.1c0-0.4,0.1-0.8,0.3-1.2c0.2-0.4,0.4-0.7,0.7-1c0.3-0.3,0.6-0.5,1-0.7s0.8-0.2,1.2-0.2h5.8
	c0.4,0,0.9,0.1,1.3,0.3s0.7,0.4,1,0.7s0.5,0.6,0.7,1s0.3,0.8,0.3,1.3L466.8,601.6L466.8,601.6z M478.7,580.6v3.5h5.7v3.2h-5.7v14.3
	h-3.2v-14.3h-4.3v-3.2h4.3v-3.5c0-0.4,0.1-0.9,0.3-1.2c0.2-0.4,0.4-0.7,0.7-1c0.3-0.3,0.6-0.5,1-0.7s0.8-0.3,1.2-0.3h5.7v3.2H478.7z
	 M492.2,584.1v17.5H489v-17.5H492.2 M488.8,577.4h3.6v3.4h-3.6V577.4z M497.8,587.4c0-0.4,0.1-0.9,0.3-1.3c0.2-0.4,0.4-0.7,0.7-1
	c0.3-0.3,0.6-0.5,1-0.7s0.8-0.3,1.2-0.3h5.8c0.4,0,0.8,0.1,1.2,0.2c0.4,0.2,0.7,0.4,1,0.7s0.5,0.6,0.7,1s0.3,0.8,0.3,1.2v-3.1h3.2
	v21.3c0,0.4-0.1,0.9-0.3,1.3c-0.2,0.4-0.4,0.7-0.7,1s-0.6,0.5-1,0.7s-0.8,0.3-1.3,0.3h-10.2v-3.2H510V601h-9c-0.4,0-0.9-0.1-1.2-0.3
	c-0.4-0.2-0.7-0.4-1-0.7s-0.5-0.6-0.7-1s-0.3-0.8-0.3-1.3V587.4 M510,597.7v-10.3h-9v10.3H510z M518.6,584.1h3.2v14.3h9v-14.3h3.2
	v17.5h-3.2v-3c0,0.4-0.1,0.8-0.3,1.1c-0.2,0.4-0.4,0.7-0.7,0.9c-0.3,0.3-0.6,0.5-1,0.6s-0.8,0.2-1.2,0.2h-5.8
	c-0.4,0-0.9-0.1-1.2-0.3c-0.4-0.2-0.7-0.4-1-0.7s-0.5-0.6-0.7-1s-0.3-0.8-0.3-1.3V584.1z M542.7,587.4v14.3h-3.2v-17.5h3.2v3.1
	c0-0.4,0.1-0.8,0.3-1.2s0.4-0.7,0.7-1s0.6-0.5,1-0.7s0.8-0.2,1.2-0.2h3.4c0.4,0,0.9,0.1,1.2,0.3c0.4,0.2,0.7,0.4,1,0.7
	s0.5,0.6,0.7,1s0.3,0.8,0.3,1.3v3h-3.2v-3L542.7,587.4L542.7,587.4z M556.6,594c0-0.4,0.1-0.9,0.3-1.3c0.2-0.4,0.4-0.7,0.7-1
	s0.6-0.5,1-0.7s0.8-0.3,1.2-0.3h8.3v-3.4h-10.6v-3.2h10.6c0.4,0,0.9,0.1,1.3,0.3c0.4,0.2,0.7,0.4,1,0.7s0.5,0.6,0.7,1
	s0.3,0.8,0.3,1.3v14.3h-3.2v-3c0,0.4-0.1,0.8-0.3,1.1c-0.2,0.4-0.4,0.7-0.7,0.9c-0.3,0.3-0.6,0.5-1,0.6s-0.8,0.2-1.2,0.2h-5.1
	c-0.4,0-0.9-0.1-1.2-0.3c-0.4-0.2-0.7-0.4-1-0.7s-0.5-0.6-0.7-1s-0.3-0.8-0.3-1.3L556.6,594 M559.9,598.4h8.3V594h-8.3V598.4z
	 M575.8,584.1h4.3v-5.4h3.2v5.4h5.7v3.2h-5.7v11h5.7v3.2h-5.7c-0.4,0-0.9-0.1-1.2-0.3c-0.4-0.2-0.7-0.4-1-0.7s-0.5-0.6-0.7-1
	s-0.3-0.8-0.3-1.3v-11h-4.3V584.1z M597.8,584.1v17.5h-3.2v-17.5H597.8 M594.4,577.4h3.6v3.4h-3.6V577.4z M618.5,598.4
	c0,0.4-0.1,0.9-0.3,1.3c-0.2,0.4-0.4,0.7-0.7,1s-0.6,0.5-1,0.7s-0.8,0.3-1.2,0.3h-8.7c-0.4,0-0.9-0.1-1.2-0.3
	c-0.4-0.2-0.7-0.4-1-0.7s-0.5-0.6-0.7-1s-0.3-0.8-0.3-1.3v-11c0-0.4,0.1-0.9,0.3-1.3c0.2-0.4,0.4-0.7,0.7-1s0.6-0.5,1-0.7
	s0.8-0.3,1.2-0.3h8.7c0.4,0,0.9,0.1,1.2,0.3c0.4,0.2,0.7,0.4,1,0.7s0.5,0.6,0.7,1s0.3,0.8,0.3,1.3V598.4 M606.6,587.4v11h8.7v-11
	H606.6z M639.4,601.6h-3.2v-14.3h-9v14.3H624v-17.5h3.2v3.1c0-0.4,0.1-0.8,0.3-1.2s0.4-0.7,0.7-1s0.6-0.5,1-0.7s0.8-0.2,1.2-0.2h5.8
	c0.4,0,0.9,0.1,1.3,0.3c0.4,0.2,0.7,0.4,1,0.7s0.5,0.6,0.7,1s0.3,0.8,0.3,1.3L639.4,601.6L639.4,601.6z"/>
<path class="st2" d="M437.2,335.8l135.2,0.8l-0.1,24.2l-55.5-0.3l-0.9,144.9l-24.2-0.1l0.9-144.9l-55.5-0.3L437.2,335.8z"/>
<path class="st2" d="M560.9,471.4h-27.5v9.2h27.5v7.7h-27.5c-1,0-2-0.2-3-0.6c-0.9-0.4-1.8-0.9-2.4-1.6c-0.7-0.7-1.2-1.5-1.6-2.4
	c-0.4-0.9-0.6-1.9-0.6-3v-26.2c0-1.1,0.2-2.1,0.6-3c0.4-0.9,1-1.8,1.6-2.4c0.7-0.7,1.5-1.2,2.4-1.6s1.9-0.6,3-0.6h19.8
	c1.1,0,2.1,0.2,3,0.6s1.8,0.9,2.4,1.6c0.7,0.7,1.2,1.5,1.6,2.4c0.4,0.9,0.6,1.9,0.6,3v16.9 M533.3,454.3v9.3h19.8v-9.3H533.3z
	 M581.3,454.3v26.2h19.8v-7h7.7v7c0,1.1-0.2,2.1-0.6,3c-0.4,0.9-0.9,1.8-1.6,2.4c-0.7,0.7-1.5,1.2-2.4,1.6s-1.9,0.6-3,0.6h-19.8
	c-1,0-2-0.2-3-0.6c-0.9-0.4-1.8-0.9-2.4-1.6c-0.7-0.7-1.2-1.5-1.6-2.4c-0.4-0.9-0.6-1.9-0.6-3v-26.2c0-1.1,0.2-2.1,0.6-3
	c0.4-0.9,1-1.8,1.6-2.4c0.7-0.7,1.5-1.2,2.4-1.6s1.9-0.6,3-0.6h19.8c1.1,0,2.1,0.2,3,0.6s1.8,0.9,2.4,1.6c0.7,0.7,1.2,1.5,1.6,2.4
	c0.4,0.9,0.6,1.9,0.6,3v7h-7.7v-7H581.3z M658.5,488.2h-7.7v-33.9h-21.4v33.9h-7.7v-57.6h7.7V454c0.1-1,0.3-2,0.7-2.9s1-1.7,1.7-2.3
	c0.7-0.7,1.5-1.2,2.4-1.6s1.9-0.6,2.9-0.6h13.7c1.1,0,2.1,0.2,3,0.6s1.8,0.9,2.4,1.6c0.7,0.7,1.2,1.5,1.6,2.4c0.4,0.9,0.6,1.9,0.6,3
	L658.5,488.2L658.5,488.2z"/>
<path class="st3" d="M339.6,545.2l305.5,1.1C645.1,546.4,341.4,546.7,339.6,545.2z"/>
</svg>
