<?xml version="1.0" encoding="utf-8"?>
<!-- Generator: Adobe Illustrator 23.0.0, SVG Export Plug-In . SVG Version: 6.00 Build 0)  -->
<svg version="1.1" id="Calque_1" xmlns="http://www.w3.org/2000/svg" xmlns:xlink="http://www.w3.org/1999/xlink" x="0px" y="0px"
	 viewBox="0 0 2048 2048" style="enable-background:new 0 0 2048 2048;" xml:space="preserve">
<style type="text/css">
	.st0{fill:none;stroke:#000000;stroke-width:32;}
</style>
<path class="st0" d="M544,512h448c17.7,0,32,14.3,32,32v448c0,17.7-14.3,32-32,32H544c-17.7,0-32-14.3-32-32V544
	C512,526.3,526.3,512,544,512z"/>
<circle class="st0" cx="128" cy="640" r="64"/>
<polyline class="st0" points="192,640 320,640 384,704 512,704 "/>
<circle class="st0" cx="256" cy="896" r="64"/>
<line class="st0" x1="320" y1="896" x2="512" y2="896"/>
<circle class="st0" cx="1280" cy="640" r="64"/>
<line class="st0" x1="1024" y1="640" x2="1216" y2="640"/>
<circle class="st0" cx="1536" cy="896" r="64"/>
<polyline class="st0" points="1472,896 1344,896 1280,960 1024,960 "/>
<g>
	<path d="M694.6,749.1v108.5h-24.6V749.1h-56.4v108.5h-24.5V724.5h24.5V748c0.2-3.3,0.9-6.3,2.3-9.2c1.3-2.9,3.1-5.4,5.3-7.5
		c2.2-2.1,4.8-3.8,7.7-5c2.9-1.2,6-1.8,9.4-1.8h31.8c3.3,0,6.3,0.6,9.3,1.8c2.9,1.2,5.5,2.9,7.8,5s4.1,4.6,5.4,7.5s2.1,5.9,2.2,9.2
		c0.2-3.3,0.9-6.3,2.2-9.2c1.3-2.9,3-5.4,5.3-7.5c2.2-2.1,4.8-3.8,7.7-5c2.9-1.2,6-1.8,9.4-1.8h31.8c3.4,0,6.6,0.6,9.6,1.9
		c3,1.3,5.6,3,7.8,5.3c2.2,2.2,4,4.8,5.3,7.8c1.3,3,1.9,6.2,1.9,9.6v108.5h-24.6V749.1H694.6z"/>
	<path d="M803.6,678.4h143.4V704h-58.9v153.6h-25.6V704h-58.9V678.4z"/>
</g>
</svg>
